<?xml version="1.0" encoding="UTF-8"?>
<svg width="21px" height="22px" viewBox="0 0 21 22" version="1.1" xmlns="http://www.w3.org/2000/svg" xmlns:xlink="http://www.w3.org/1999/xlink">
    <!-- Generator: Sketch 49.1 (51147) - http://www.bohemiancoding.com/sketch -->
    <title>loading</title>
    <desc>Created with Sketch.</desc>
    <defs></defs>
    <g id="Page-1" stroke="none" stroke-width="1" fill="none" fill-rule="evenodd">
        <g id="02_ProcessingAll" transform="translate(-1111.000000, -427.000000)" fill="#006BD5" fill-rule="nonzero" stroke="#006BD5" stroke-width="0.5">
            <g id="Group-6" transform="translate(1112.000000, 427.000000)">
                <g id="loading" transform="translate(0.000000, 1.000000)">
                    <path d="M9.93092464,0 C9.43355804,0 9.03034012,0.403217923 9.03034012,0.900584521 L9.03034012,4.50288391 C9.03034012,5.00025051 9.43355804,5.40346843 9.93092464,5.40346843 C10.4282912,5.40346843 10.8315092,5.00025051 10.8315092,4.50288391 L10.8315092,0.900584521 C10.8315092,0.403217923 10.4282912,0 9.93092464,0 Z" id="Shape"></path>
                    <path d="M9.93100204,14.4091976 C9.43363544,14.4091976 9.03041752,14.8124155 9.03041752,15.3097821 L9.03041752,18.9120815 C9.03041752,19.4094481 9.43363544,19.812666 9.93100204,19.812666 C10.4283686,19.812666 10.8315866,19.4094481 10.8315866,18.9120815 L10.8315866,15.3097821 C10.8315866,14.8124155 10.4283686,14.4091976 9.93100204,14.4091976 Z" id="Shape" opacity="0.6"></path>
                    <path d="M6.74693483,5.44878208 L4.19969654,2.9014664 C3.8480998,2.54975356 3.27786762,2.54975356 2.92611609,2.9014664 C2.57440326,3.25317923 2.57440326,3.82337271 2.92611609,4.17504684 L5.47335438,6.72236253 C5.64919145,6.89819959 5.87970672,6.98615682 6.11010591,6.98615682 C6.34054379,6.98615682 6.57109776,6.89819959 6.74685743,6.72236253 C7.09864766,6.37064969 7.09864766,5.80049491 6.74693483,5.44878208 Z" id="Shape"></path>
                    <path d="M18.0361079,9.00572912 L16.2349776,9.00572912 C15.737611,9.00572912 15.3343931,9.40894705 15.3343931,9.90631365 C15.3343931,10.4036802 15.737611,10.8068982 16.2349776,10.8068982 L18.0361079,10.8068982 C18.5334745,10.8068982 18.9366925,10.4036802 18.9366925,9.90631365 C18.9366925,9.40894705 18.5334745,9.00572912 18.0361079,9.00572912 Z" id="Shape" opacity="0.2"></path>
                    <path d="M14.3885336,13.0903809 C14.0368982,12.738668 13.466666,12.7387454 13.1149532,13.0903809 C12.7632403,13.4420937 12.7633177,14.0122485 13.1149532,14.3639613 L15.6622688,16.9111609 C15.8381059,17.086998 16.0686212,17.1749165 16.2990978,17.1749165 C16.5295743,17.1749165 16.7600896,17.0869593 16.9358493,16.9111609 C17.2875621,16.5594481 17.2875621,15.9892546 16.9358493,15.6375804 L14.3885336,13.0903809 Z" id="Shape" opacity="0.3"></path>
                    <path d="M5.42807943,9.90631365 C5.42807943,9.40894705 5.02486151,9.00572912 4.52749491,9.00572912 L0.925195519,9.00572912 C0.427828921,9.00572912 0.024610998,9.40894705 0.024610998,9.90631365 C0.024610998,10.4036802 0.427828921,10.8068982 0.925195519,10.8068982 L4.52749491,10.8068982 C5.02486151,10.8068982 5.42807943,10.4036802 5.42807943,9.90631365 Z" id="Shape" opacity="0.8"></path>
                    <path d="M6.74693483,13.0903809 C6.39529939,12.738668 5.82502851,12.738668 5.47335438,13.0903809 L2.92615479,15.6375804 C2.57444196,15.9892159 2.57444196,16.5594868 2.92615479,16.9111609 C3.10199185,17.086998 3.33250713,17.1749165 3.56298371,17.1749165 C3.79346029,17.1749165 4.02397556,17.0870367 4.19973523,16.9111609 L6.74693483,14.3639613 C7.09864766,14.0123259 7.09864766,13.4420937 6.74693483,13.0903809 Z" id="Shape" opacity="0.8"></path>
                </g>
            </g>
        </g>
    </g>
</svg>