<?xml version="1.0" encoding="UTF-8"?>
<svg width="17px" height="23px" viewBox="0 0 17 23" version="1.1" xmlns="http://www.w3.org/2000/svg" xmlns:xlink="http://www.w3.org/1999/xlink">
    <!-- Generator: Sketch 49.1 (51147) - http://www.bohemiancoding.com/sketch -->
    <title>medical</title>
    <desc>Created with Sketch.</desc>
    <defs></defs>
    <g id="Page-1" stroke="none" stroke-width="1" fill="none" fill-rule="evenodd">
        <g id="01_Home" transform="translate(-1114.000000, -496.000000)" fill="#006BD5" fill-rule="nonzero">
            <g id="medical" transform="translate(1114.000000, 496.000000)">
                <path d="M15.1110964,1.88890365 L13.1352005,1.88890365 C12.939612,1.34043229 12.4203594,0.944473958 11.805526,0.944473958 L10.3791641,0.944473958 C9.93557031,0.356026042 9.23830469,0 8.5,0 C7.76169531,0 7.06442969,0.356026042 6.62079167,0.944429688 L5.19442969,0.944429688 C4.57959635,0.944429688 4.06034375,1.34038802 3.86475521,1.88885938 L1.88890365,1.88885938 C0.847122396,1.88890365 0,2.73602604 0,3.77776302 L0,20.777763 C0,21.8195443 0.847122396,22.6666667 1.88890365,22.6666667 L15.1111406,22.6666667 C16.1528776,22.6666667 17,21.8195443 17,20.777763 L17,3.77776302 C17,2.73602604 16.1528776,1.88890365 15.1110964,1.88890365 Z M4.72223698,2.36109635 C4.72223698,2.1005625 4.93389583,1.88885937 5.19447396,1.88885937 L6.87309115,1.88885937 C7.04096615,1.88885937 7.19635677,1.79938802 7.28122396,1.65413542 C7.53994271,1.20956771 7.99553385,0.944429688 8.50004427,0.944429688 C9.00455469,0.944429688 9.4601901,1.20961198 9.71886458,1.65413542 C9.80373177,1.79938802 9.9591224,1.88885937 10.1269974,1.88885937 L11.8056146,1.88885937 C12.0661484,1.88885937 12.2778516,2.10051823 12.2778516,2.36109635 L12.2778516,2.83333333 C12.2778516,3.35395833 11.8540469,3.77776302 11.3334219,3.77776302 L5.66666667,3.77776302 C5.14604167,3.77776302 4.72223698,3.35395833 4.72223698,2.83333333 L4.72223698,2.36109635 Z M16.0555703,20.777763 C16.0555703,21.298388 15.6317656,21.7221927 15.1111406,21.7221927 L1.88890365,21.7221927 C1.36827865,21.7221927 0.944473958,21.298388 0.944473958,20.777763 L0.944473958,3.77776302 C0.944473958,3.25713802 1.36827865,2.83333333 1.88890365,2.83333333 L3.77780729,2.83333333 C3.77780729,3.87507031 4.62492969,4.72223698 5.66671094,4.72223698 L11.3333776,4.72223698 C12.3751146,4.72223698 13.2222812,3.87511458 13.2222812,2.83333333 L15.1111849,2.83333333 C15.6318099,2.83333333 16.0556146,3.25713802 16.0556146,3.77776302 L16.0556146,20.777763 L16.0555703,20.777763 Z" id="Shape"></path>
                <path d="M12.75,18.8889036 L4.25,18.8889036 C3.98897917,18.8889036 3.77776302,19.1001198 3.77776302,19.3611406 C3.77776302,19.6221615 3.98897917,19.8333776 4.25,19.8333776 L12.75,19.8333776 C13.0110208,19.8333776 13.222237,19.6221615 13.222237,19.3611406 C13.222237,19.1001198 13.0110208,18.8889036 12.75,18.8889036 Z" id="Shape"></path>
                <path d="M12.75,16.0555703 L4.25,16.0555703 C3.98897917,16.0555703 3.77776302,16.2667865 3.77776302,16.5278073 C3.77776302,16.7888281 3.98897917,17.0000443 4.25,17.0000443 L12.75,17.0000443 C13.0110208,17.0000443 13.222237,16.7888281 13.222237,16.5278073 C13.222237,16.2667865 13.0110208,16.0555703 12.75,16.0555703 Z" id="Shape"></path>
                <path d="M12.75,11.3333333 L12.0974479,11.3333333 L11.2835286,9.70545052 C11.2000781,9.53757552 11.0308307,9.43938281 10.8362161,9.44491667 C10.6489948,9.45505469 10.4847943,9.57498438 10.418875,9.75065104 L9.53483073,12.1085156 L8.48570052,7.91341146 C8.43775521,7.72158594 8.27585677,7.58000781 8.07942708,7.5583151 C7.88065104,7.53848177 7.69391667,7.63995052 7.605375,7.81654688 L5.84698177,11.3333333 L4.25,11.3333333 C3.98897917,11.3333333 3.77776302,11.5445495 3.77776302,11.8055703 C3.77776302,12.0665911 3.98897917,12.2778073 4.25,12.2778073 L6.13890365,12.2778073 C6.31784635,12.2778073 6.48107292,12.1768255 6.56133594,12.0167865 L7.87932292,9.3808125 L8.98653646,13.8088255 C9.03634115,14.0094167 9.2111224,14.1542266 9.41773438,14.1657813 C9.4265,14.166224 9.43570833,14.1667109 9.44447396,14.1667109 C9.64046094,14.1667109 9.81710156,14.0454089 9.88673958,13.8604896 L10.9229427,11.0963073 L11.3831823,12.0167865 C11.4634453,12.1768255 11.6266719,12.2778073 11.8056146,12.2778073 L12.75,12.2778073 C13.0110208,12.2778073 13.222237,12.0665911 13.222237,11.8055703 C13.222237,11.5445495 13.0110208,11.3333333 12.75,11.3333333 Z" id="Shape"></path>
            </g>
        </g>
    </g>
</svg>