<?xml version="1.0" encoding="UTF-8"?>
<svg width="24px" height="33px" viewBox="0 0 24 33" version="1.1" xmlns="http://www.w3.org/2000/svg" xmlns:xlink="http://www.w3.org/1999/xlink">
    <!-- Generator: Sketch 49.1 (51147) - http://www.bohemiancoding.com/sketch -->
    <title>boy</title>
    <desc>Created with Sketch.</desc>
    <defs></defs>
    <g id="Page-1" stroke="none" stroke-width="1" fill="none" fill-rule="evenodd">
        <g id="01_Home" transform="translate(-968.000000, -22.000000)" fill-rule="nonzero">
            <g id="Action-Bar" transform="translate(968.000000, 22.000000)">
                <g id="boy">
                    <g id="Group" transform="translate(0.000000, 4.000000)">
                        <rect id="Rectangle-path" fill="#FDCC9B" x="9.59166667" y="20.4430759" width="4.89916667" height="5.4175443"></rect>
                        <path d="M9.59183333,21.0810633 C9.59183333,21.0810633 11.6526667,22.3767848 14.491,22.0766329 L14.491,20.4429114 L9.59183333,20.4429114 L9.59183333,21.0810633 Z" id="Shape" fill="#FCBC85"></path>
                        <ellipse id="Oval" fill="#FCBC85" cx="2.52733333" cy="12.042443" rx="2.3905" ry="2.69281013"></ellipse>
                        <ellipse id="Oval" fill="#FCBC85" cx="21.5553333" cy="12.042443" rx="2.3905" ry="2.69281013"></ellipse>
                        <path d="M21.5456667,6.89905063 C21.5456667,2.93273418 18.6061667,0.030278481 12.0413333,0.030278481 C5.4765,0.030278481 2.537,2.93256962 2.537,6.89905063 C2.537,10.8655316 1.85116667,21.3137468 12.0413333,21.3137468 C22.2315,21.3137468 21.5456667,10.8655316 21.5456667,6.89905063 Z" id="Shape" fill="#FDCC9B"></path>
                        <g transform="translate(5.500000, 7.240506)">
                            <g transform="translate(0.833333, 2.962025)" id="Oval">
                                <ellipse fill="#3B2519" cx="1.07866667" cy="1.19501266" rx="1.02883333" ry="1.11256962"></ellipse>
                                <ellipse fill="#FFFFFF" cx="0.630166667" cy="0.703810127" rx="1" ry="1"></ellipse>
                            </g>
                            <path d="M0.266166667,1.39988608 C0.752666667,1.64013924 1.53383333,0.583683544 3.322,1.50273418 C3.648,1.67025316 3.8425,0.0697721519 1.92583333,0.0697721519 C0.266166667,0.0697721519 -0.0278333333,1.25491139 0.266166667,1.39988608 Z" id="Shape" fill="#51362A"></path>
                            <g transform="translate(10.166667, 2.962025)" id="Oval">
                                <ellipse fill="#3B2519" cx="1.131" cy="1.19501266" rx="1.02883333" ry="1.11256962"></ellipse>
                                <ellipse fill="#FFFFFF" cx="0.6825" cy="0.703810127" rx="1" ry="1"></ellipse>
                            </g>
                            <path d="M12.8165,1.39988608 C12.33,1.64013924 11.5488333,0.583683544 9.76066667,1.50273418 C9.43466667,1.67025316 9.24016667,0.0697721519 11.157,0.0697721519 C12.8165,0.0697721519 13.1103333,1.25491139 12.8165,1.39988608 Z" id="Shape" fill="#51362A"></path>
                        </g>
                        <path d="M12.0413333,15.3108734 C11.0246667,15.3108734 10.4123333,14.5611519 10.4123333,14.9238354 C10.4123333,15.2866835 10.7063333,15.9760127 12.0413333,15.9760127 C13.3763333,15.9760127 13.6703333,15.2866835 13.6703333,14.9238354 C13.6703333,14.5609873 13.0578333,15.3108734 12.0413333,15.3108734 Z" id="Shape" fill="#FCBC85"></path>
                        <path d="M12.0413333,18.646443 C11.6896667,18.646443 11.4778333,18.3871013 11.4778333,18.5126582 C11.4778333,18.6382152 11.5795,18.8764937 12.0413333,18.8764937 C12.5031667,18.8764937 12.6046667,18.6382152 12.6046667,18.5126582 C12.6046667,18.3871013 12.3928333,18.646443 12.0413333,18.646443 Z" id="Shape" fill="#FCBC85"></path>
                        <path d="M12.0413333,17.1169563 C10.43,17.1169563 9.45916667,15.6684632 9.45916667,16.0356453 C9.45916667,16.4028275 9.92516667,17.8472736 12.0413333,17.8472736 C14.1575,17.8472736 14.6235,16.4028275 14.6235,16.0356453 C14.6233333,15.6684632 13.6526667,17.1169563 12.0413333,17.1169563 Z" id="Shape" fill="#F7945E"></path>
                    </g>
                    <path d="M12,26 L12,33 L0,33 C0,30.1665857 6.32080306,26 12,26 Z" id="Shape" fill="#1991EB"></path>
                    <path d="M12,26 L12,33 L24,33 C24,30.1665857 17.6791969,26 12,26 Z" id="Shape" fill="#1991EB"></path>
                    <path d="M12.9299676,26 C11.6271659,26 10.2931983,26.1554044 9,26.4205969 C9.00869742,26.4303386 10.4343503,28 12.9299676,28 C15.2409458,28 16.7773097,26.6557909 17,26.449049 C15.6631333,26.1659193 14.2798804,26 12.9299676,26 Z" id="Shape" fill="#747474"></path>
                    <path d="M10,26.3163323 C10,26.3163323 10.5849974,27 11.999932,27 C13.4148665,27 14,26.3163323 14,26.3163323 C14,26.3163323 11.9250893,25.6045846 10,26.3163323 Z" id="Shape" fill="#FDCC9B"></path>
                    <path d="M19.6469115,3.11987254 C19.6469115,3.11987254 16.1022455,-1.28721458 8.73488735,0.374455204 C1.36769671,2.03596113 0.815664061,6.37095135 1.03724756,10.5884564 C1.25883105,14.8061253 1.84955289,17.2803599 2.54830296,16.9746035 C3.24705303,16.6686832 2.88344171,13.8847596 2.95730288,13.2422779 C3.03116404,12.5997961 3.69574705,9.69429091 8.17649025,10.1278555 C12.657066,10.56142 16.4328621,8.97184716 16.4328621,8.97184716 C16.4328621,8.97184716 17.9527943,10.8514462 18.9530185,11.211603 C20.9517921,11.9310974 20.2962533,16.7286548 21.0794161,16.7286548 C21.8625789,16.7286548 25.7025221,5.6485076 19.6469115,3.11987254 Z" id="Shape" fill="#51362A"></path>
                </g>
            </g>
        </g>
    </g>
</svg>